<svg xmlns="http://www.w3.org/2000/svg" viewBox="0 0 80 50" width="80" height="50">
  <!-- Lightbulb outline -->
  <path d="M5 15 C5 8, 12 2, 20 2 C28 2, 35 8, 35 15 C35 18, 33 21, 31 23 L31 27 L9 27 L9 23 C7 21, 5 18, 5 15 Z" 
        fill="none" stroke="#000" stroke-width="2"/>
  <!-- Lightbulb lines -->
  <line x1="12" y1="24" x2="28" y2="24" stroke="#000" stroke-width="1.5"/>
  <line x1="14" y1="26" x2="26" y2="26" stroke="#000" stroke-width="1.5"/>
  
  <!-- Letter "i" -->
  <circle cx="45" cy="8" r="2" fill="#000"/>
  <rect x="43" y="15" width="4" height="25" fill="#000"/>
  
  <!-- Letter "t" -->
  <rect x="55" y="12" width="4" height="28" fill="#000"/>
  <rect x="52" y="15" width="10" height="4" fill="#000"/>
  
  <!-- Arrow pointing right -->
  <path d="M65 25 L75 25 L72 22 M75 25 L72 28" 
        fill="none" stroke="#000" stroke-width="2" stroke-linecap="round"/>
</svg>
